<svg width="100" height="42" viewBox="0 0 100 42" fill="none" xmlns="http://www.w3.org/2000/svg">
<path fill-rule="evenodd" clip-rule="evenodd" d="M61.7078 0.0489089C60.4166 0.196363 59.427 0.688285 58.6048 1.59164C58.1073 2.13821 57.5509 3.17329 57.5509 3.55223C57.5509 3.62944 57.5258 3.72018 57.4951 3.75382C57.4643 3.78746 57.3874 4.14424 57.3242 4.54652C57.162 5.5785 57.2457 7.275 57.4884 7.87519C57.517 7.94608 57.5566 8.09844 57.5764 8.21373C57.6357 8.56052 58.1197 9.4582 58.4939 9.91558C59.3214 10.927 60.1638 11.3885 61.5428 11.5859C62.2572 11.6881 63.488 11.6269 64.1465 11.4563C66.5813 10.8255 67.9301 8.55871 67.7727 5.36177C67.6757 3.39253 66.9734 1.86682 65.7357 0.936083C64.744 0.190434 63.2842 -0.131091 61.7078 0.0489089ZM17.8517 0.104076C16.7828 0.207513 15.7062 0.692539 14.9777 1.39875C14.1699 2.18197 13.7406 2.93754 13.44 4.10506C13.2829 4.71518 13.2655 4.89595 13.2631 5.94179C13.2608 6.99569 13.2762 7.1608 13.4311 7.7463C13.5249 8.10076 13.662 8.52037 13.7358 8.67871C13.8096 8.83712 13.8924 9.02563 13.9199 9.09762C14.1109 9.59837 15.2064 10.7097 15.846 11.0515C17.1985 11.7745 19.2187 11.8336 20.3728 11.184C20.6293 11.0396 21.2936 10.5051 21.3944 10.362C21.4466 10.288 21.525 10.2275 21.5686 10.2275C21.6606 10.2275 21.7821 10.6178 21.7826 10.915C21.7834 11.3226 21.7844 11.3231 22.6599 11.3231H23.4586L23.4662 8.50355C23.4705 6.95283 23.4676 5.6405 23.4598 5.58733C23.452 5.53416 23.4124 5.46933 23.3716 5.4433C23.2378 5.35777 18.9827 5.38446 18.8958 5.47133C18.8145 5.55266 18.7823 7.02926 18.8576 7.22544C18.8913 7.31328 19.0606 7.32739 20.0821 7.32739H21.2674L21.2665 7.4724C21.2653 7.64119 21.1488 7.98024 20.99 8.27715C20.7144 8.79201 20.1256 9.26582 19.4998 9.47624C19.0799 9.61744 18.1716 9.61828 17.7596 9.47792C16.3489 8.99727 15.6585 7.84413 15.6618 5.97401C15.6644 4.56733 15.9814 3.59496 16.6595 2.91408C17.153 2.41855 17.316 2.31731 17.9162 2.13312C18.7115 1.88912 19.8381 2.14156 20.4424 2.69909C20.6849 2.92285 21.0096 3.44764 21.0096 3.61571C21.0096 3.66972 21.0657 3.74383 21.1343 3.78057C21.2924 3.86519 23.1689 3.86893 23.3258 3.78489C23.4347 3.72663 23.4363 3.69634 23.3496 3.32119C23.1868 2.61627 22.8398 2.00042 22.3005 1.45875C21.865 1.02141 21.3653 0.624934 21.2496 0.624934C21.2259 0.624934 21.0535 0.555912 20.8664 0.471615C20.1651 0.15544 18.9063 0.0019919 17.8517 0.104076ZM25.6794 0.383259C25.6626 0.427598 25.6562 2.8999 25.6654 5.87734L25.682 11.2909L26.7937 11.3085L27.9054 11.3261V9.29914C27.9054 7.50643 27.9177 7.25992 28.0111 7.16647C28.1042 7.07341 28.2829 7.06381 29.5095 7.08611C31.0394 7.11388 31.3045 7.16254 31.5897 7.46782C31.8507 7.74733 31.9033 8.00267 31.9655 9.29302C32.0171 10.3648 32.0839 10.9265 32.1936 11.2103C32.233 11.3125 32.3574 11.3231 33.5117 11.3231C34.7212 11.3231 34.7879 11.3166 34.8191 11.1974C34.8386 11.1226 34.7872 10.9856 34.6921 10.8591C34.4215 10.4989 34.3978 10.3673 34.3464 8.93856C34.3094 7.90954 34.2688 7.47427 34.1885 7.24722C34.063 6.89212 33.5699 6.31313 33.3449 6.25668C33.1044 6.19629 33.1537 6.00997 33.4449 5.8787C33.861 5.69109 34.2863 5.12531 34.5202 4.44843C34.658 4.04963 34.6692 2.89642 34.5389 2.52611C34.3761 2.06364 34.0473 1.56534 33.663 1.19883C33.1658 0.724569 32.7411 0.530262 31.9011 0.392797C31.1481 0.269574 25.726 0.261261 25.6794 0.383259ZM36.5857 0.344204C36.5613 0.368629 36.5419 2.08762 36.5426 4.16416C36.5439 8.19588 36.562 8.48338 36.8713 9.37197C36.9549 9.6121 37.0587 9.84578 37.1021 9.89128C37.1454 9.93678 37.275 10.1052 37.3903 10.2656C38.0987 11.2521 39.8265 11.7792 41.7074 11.5824C43.0705 11.4399 44.0202 10.9861 44.6094 10.196C45.1147 9.51839 45.2789 9.00507 45.3716 7.81384C45.4563 6.72514 45.4535 0.586718 45.3683 0.427341C45.3063 0.311659 45.2239 0.302765 44.2243 0.303667C43.6319 0.304247 43.1122 0.326868 43.0694 0.354064C43.0107 0.391379 42.9859 1.34474 42.968 4.26817C42.941 8.66718 42.9576 8.51702 42.4387 9.03523C42.0293 9.44402 41.6517 9.58381 40.958 9.58335C39.9157 9.58271 39.296 9.1435 39.0478 8.22965C38.9921 8.02471 38.9579 6.82465 38.9313 4.13728L38.8936 0.334924L37.7619 0.317394C37.1394 0.307727 36.6101 0.319779 36.5857 0.344204ZM47.6008 0.404655C47.5244 0.603667 47.5565 11.2478 47.6337 11.2955C47.7334 11.3571 49.7729 11.328 49.8374 11.264C49.8661 11.2354 49.887 10.4114 49.8838 9.43274C49.8784 7.74707 49.8847 7.64673 50.0044 7.52699C50.1222 7.40918 50.2316 7.40022 51.6299 7.39416C53.1516 7.38759 53.7667 7.31592 54.1882 7.09603C54.2832 7.04647 54.3846 7.00581 54.4137 7.00555C54.4808 7.00503 54.9525 6.67925 55.1744 6.48018C55.4238 6.25648 55.6545 5.86716 55.8181 5.39399C55.942 5.03548 55.9636 4.83569 55.9675 4.00839C55.9724 2.94785 55.891 2.46089 55.628 1.97832C55.2953 1.36807 54.7161 0.86068 54.0767 0.619521C53.3834 0.35806 52.7158 0.305085 50.0981 0.303861C47.9153 0.30283 47.6356 0.314108 47.6008 0.404655ZM63.2715 2.14717C64.0307 2.36783 64.6114 2.88656 64.9946 3.68615C65.2767 4.27481 65.3578 4.67316 65.3944 5.65088C65.4698 7.65988 64.768 8.98774 63.373 9.47553C62.9766 9.61416 61.9146 9.59882 61.5466 9.44918C60.2728 8.93122 59.6132 7.70119 59.6132 5.84389C59.6132 4.84355 59.7195 4.34042 60.0929 3.57363C60.4293 2.88295 61.0213 2.37279 61.7538 2.1424C62.1394 2.02111 62.8455 2.0233 63.2715 2.14717ZM31.4849 2.48616C31.762 2.61202 32.0658 2.92774 32.171 3.19919C32.2763 3.47077 32.2504 4.188 32.1268 4.4271C31.9785 4.71389 31.6472 5.00731 31.4717 5.00731C31.393 5.00731 31.3108 5.03631 31.2889 5.07176C31.2422 5.14729 27.9702 5.16314 27.9693 5.08787C27.9658 4.80914 27.963 2.61956 27.966 2.51L27.9699 2.365L29.5972 2.36641C31.0365 2.36764 31.2545 2.38149 31.4849 2.48616ZM52.8778 2.52856C53.3369 2.74575 53.5615 3.11226 53.6041 3.71374C53.6425 4.25709 53.5487 4.59427 53.2676 4.92256C52.8983 5.35404 52.6734 5.41288 51.2718 5.44491C50.1518 5.47049 50.0447 5.46327 49.9667 5.35661C49.903 5.26955 49.882 4.91689 49.8827 3.94774C49.8831 3.2367 49.901 2.58979 49.9224 2.51C49.961 2.36577 49.9681 2.365 51.2467 2.365C52.4892 2.365 52.5436 2.37047 52.8778 2.52856ZM99.2795 6.17934C99.2618 6.22594 99.2403 14.1813 99.2316 23.858L99.2158 41.4519L81.6218 41.4842L64.0278 41.5164V41.742V41.9675L81.6454 41.9838L99.2629 42L99.5134 41.7496L99.7638 41.4991L99.7476 23.8171L99.7313 6.13513L99.5214 6.11489C99.3916 6.10239 99.2993 6.12695 99.2795 6.17934ZM65.3039 13.6865C64.974 14.1191 64.0672 15.6004 64.0999 15.6533C64.1176 15.682 64.4841 15.7055 64.9142 15.7055H65.6962L66.7762 14.6309C67.3702 14.0399 67.8413 13.5324 67.8233 13.5031C67.8052 13.4738 67.2715 13.4498 66.6374 13.4498H65.4845L65.3039 13.6865ZM64.6723 16.5489C64.1891 16.6008 63.9708 16.6423 63.4156 16.7875C63.0154 16.8921 62.3255 17.2759 61.943 17.6066C60.9397 18.4741 60.4131 19.4538 60.1553 20.9326C59.9984 21.8326 60.0579 23.5058 60.2767 24.3451C60.6571 25.8041 61.5776 27.042 62.7196 27.6307C64.084 28.334 66.5576 28.345 67.8893 27.6536C69.1408 27.0039 69.9832 25.8667 70.3905 24.2769C70.5671 23.5876 70.5804 23.4524 70.5806 22.3435C70.5808 21.2683 70.5638 21.0816 70.4077 20.4423C70.0299 18.8951 69.1095 17.6585 67.8667 17.0288C67.0991 16.6398 65.7342 16.4347 64.6723 16.5489ZM52.653 16.806C52.0755 16.9528 51.3647 17.2999 51.0103 17.6085C50.8689 17.7315 50.7327 17.8322 50.7077 17.8322C50.6053 17.8322 49.8227 18.9269 49.625 19.3467C49.3853 19.8554 49.301 20.1365 49.1149 21.0472C49.0066 21.5773 49.0237 23.5276 49.1406 23.9765C49.1938 24.1806 49.2373 24.3926 49.2373 24.4475C49.2373 24.6515 49.7606 25.8363 50.0157 26.2101C50.3614 26.7166 51.0107 27.2969 51.5468 27.5784C52.9957 28.3394 54.9801 28.3727 56.3935 27.6598C57.5049 27.0993 58.4205 25.8719 58.7135 24.55C58.836 23.9972 58.8713 24.0136 57.6031 24.0337L56.4923 24.0513L56.416 24.2124C56.3739 24.3011 56.259 24.5543 56.1606 24.7752C55.9293 25.2943 55.5876 25.6555 55.121 25.8741C54.7927 26.028 54.6695 26.0492 54.103 26.0492C53.5382 26.0492 53.4129 26.0278 53.0889 25.8759C52.0487 25.3884 51.4285 24.1056 51.4285 22.4416C51.4285 21.8765 51.5714 20.9311 51.6892 20.7171C51.723 20.6556 51.7507 20.5608 51.7507 20.5066C51.7507 20.3293 52.1599 19.6752 52.4579 19.3762C52.9203 18.9121 53.2748 18.7706 54.0386 18.7453C54.7758 18.7209 55.2127 18.8418 55.6298 19.1858C55.8765 19.3892 56.2204 19.9281 56.2951 20.2281C56.3845 20.5871 56.4642 20.6083 57.6544 20.5889L58.7432 20.5712L58.7629 20.301C58.7868 19.9711 58.547 19.25 58.2507 18.761C57.9497 18.2643 57.3289 17.6432 56.8545 17.3637C56.3941 17.0927 55.7033 16.8419 55.1384 16.7407C54.5192 16.6298 53.2115 16.6641 52.653 16.806ZM0.145005 16.8675L0 16.9258V22.3335C0 26.8172 0.0150161 27.7537 0.0877764 27.814C0.151385 27.8669 1.2968 27.8823 4.2607 27.8703L8.34585 27.8537V26.8548V25.8558L5.41353 25.8236C3.80075 25.8059 2.44498 25.7679 2.40064 25.7392C2.34103 25.7006 2.32008 25.3797 2.32008 24.5039C2.32008 23.8532 2.33768 23.2749 2.3592 23.2188C2.39394 23.1282 2.68324 23.1168 4.95641 23.1168C6.8601 23.1168 7.53427 23.0971 7.59183 23.0395C7.67322 22.9581 7.70557 21.4178 7.63004 21.2209C7.59531 21.1303 7.306 21.119 5.03284 21.119C3.12915 21.119 2.45497 21.0992 2.39742 21.0417C2.28167 20.9259 2.28979 19.0332 2.40644 18.9364C2.46612 18.8868 3.35568 18.8596 5.29043 18.848L8.08807 18.8311L8.10663 17.9611C8.11681 17.4826 8.10901 17.0259 8.08929 16.9461L8.05339 16.8011L4.1717 16.8051C2.01828 16.8074 0.225435 16.8352 0.145005 16.8675ZM10.1592 16.8981C10.0745 16.9828 10.0614 17.6733 10.0559 22.3509C10.0512 26.3119 10.069 27.73 10.124 27.7963C10.2364 27.9317 17.7562 27.9298 17.8324 27.7943C17.8608 27.744 17.8695 27.2872 17.8517 26.7793L17.8195 25.8558L15.1772 25.8236L12.5349 25.7914L12.5027 21.3583C12.4747 17.5117 12.4577 16.9171 12.3738 16.8642C12.3206 16.8305 11.8224 16.8026 11.2666 16.802C10.4518 16.8013 10.2374 16.8198 10.1592 16.8981ZM23.6197 16.8462C23.323 16.9157 23.3297 16.7895 23.3306 22.3397C23.3311 25.2306 23.349 27.6612 23.3703 27.7409C23.4087 27.8839 23.4239 27.8859 24.4844 27.8859C25.2347 27.8859 25.583 27.8625 25.6369 27.8086C25.6938 27.7517 25.7142 27.1914 25.7142 25.6887C25.7142 23.8857 25.7262 23.6416 25.8162 23.6071C26.0216 23.5283 28.1903 23.5669 28.6211 23.657C29.5292 23.847 29.6269 24.0426 29.7123 25.8417C29.7528 26.6932 29.8113 27.2731 29.8812 27.5153L29.9882 27.8859H31.2268C32.5814 27.8859 32.6715 27.8627 32.551 27.5456C32.5169 27.456 32.4554 27.362 32.4141 27.3365C32.21 27.2104 32.1427 26.8116 32.0937 25.4369C32.0407 23.9488 31.991 23.6973 31.6669 23.2724C31.5708 23.1464 31.3667 22.957 31.2133 22.8514C31.0599 22.7459 30.9344 22.6347 30.9344 22.6043C30.9344 22.5739 31.0617 22.4745 31.2171 22.3834C31.84 22.0184 32.3069 21.1792 32.3873 20.2804C32.4761 19.2863 32.1363 18.385 31.4198 17.7148C30.7236 17.0635 30.3405 16.9416 28.7454 16.8636C27.5263 16.8041 23.853 16.7916 23.6197 16.8462ZM34.1864 16.8816C34.1695 16.926 34.1632 19.4128 34.1724 22.4079L34.189 27.8537L35.2438 27.8714C35.967 27.8836 36.3266 27.8659 36.3877 27.8152C36.4623 27.7533 36.4769 26.8591 36.4769 22.3379C36.4769 17.0617 36.4739 16.9329 36.3522 16.8678C36.164 16.767 34.2254 16.7795 34.1864 16.8816ZM38.5467 16.8886C38.4937 16.9525 38.4784 18.4503 38.4904 22.415L38.5069 27.8537L39.5377 27.8715C40.4504 27.8873 40.5777 27.8766 40.6494 27.7787C40.712 27.693 40.7303 26.8625 40.7303 24.1035C40.7303 20.978 40.7423 20.539 40.827 20.539C40.8802 20.539 40.9237 20.5718 40.9237 20.612C40.9237 20.6521 41.1451 21.0654 41.4157 21.5304C41.6863 21.9953 41.9794 22.5062 42.067 22.6657C42.2517 23.0021 42.6315 23.6579 43.0292 24.3275C43.1827 24.5857 43.3082 24.8081 43.3082 24.8217C43.3082 24.8352 43.4334 25.0589 43.5863 25.3188C43.7392 25.5787 43.8844 25.8349 43.909 25.8881C43.9337 25.9412 44.0078 26.0717 44.0739 26.1781C44.14 26.2844 44.3591 26.6612 44.5609 27.0154C45.1053 27.9712 44.9468 27.8917 46.2679 27.8712L47.4006 27.8537L47.4171 22.3677L47.4335 16.8818L47.2318 16.8414C46.9163 16.7783 45.4138 16.796 45.3061 16.8641C45.2224 16.917 45.207 17.4061 45.1917 20.5044C45.1811 22.6512 45.15 24.0835 45.1141 24.0835C45.0813 24.0835 45.0039 23.9748 44.9423 23.8419C44.8806 23.709 44.7617 23.4895 44.678 23.3543C44.5275 23.1112 44.4846 23.0365 44.0984 22.3435C43.9031 21.9931 43.8289 21.863 43.0686 20.539C42.3376 19.266 41.3548 17.5425 41.1762 17.2202C41.0686 17.0262 40.9381 16.8814 40.8479 16.856C40.7655 16.8329 40.2304 16.8111 39.6587 16.8075C38.8551 16.8025 38.6029 16.8209 38.5467 16.8886ZM72.3157 16.89C72.2046 17.0238 72.2148 27.7626 72.3261 27.8333C72.37 27.8611 72.845 27.8844 73.3818 27.8849C74.2129 27.8858 74.3635 27.8708 74.3969 27.784C74.4184 27.7279 74.436 26.0748 74.436 24.1105C74.436 21.0362 74.449 20.539 74.5293 20.539C74.5806 20.539 74.7618 20.7879 74.9321 21.0921C75.1023 21.3963 75.3191 21.7805 75.4139 21.946C75.5087 22.1115 75.6268 22.3193 75.6763 22.4079C75.8151 22.6566 77.2341 25.1286 78.0623 26.5647L78.8055 27.8537L79.9152 27.8713C80.6787 27.8835 81.0526 27.866 81.1138 27.8151C81.1883 27.7533 81.2029 26.8563 81.2029 22.3379C81.2029 17.0617 81.1999 16.9329 81.0783 16.8678C80.9222 16.7842 79.2076 16.7811 79.0761 16.8641C78.9921 16.9172 78.9795 17.3877 78.9795 20.456C78.9795 22.6292 78.9558 24.0039 78.9178 24.0312C78.8633 24.0702 78.5322 23.5478 77.9422 22.4918C77.5322 21.7581 76.5009 19.955 76.0327 19.1534C75.9085 18.9407 75.7341 18.6362 75.6453 18.4767C75.5565 18.3172 75.3351 17.9306 75.1532 17.6177C74.9714 17.3047 74.8227 17.023 74.8227 16.9916C74.8227 16.846 74.5058 16.8011 73.4814 16.8011C72.6318 16.8011 72.3731 16.8208 72.3157 16.89ZM65.9612 18.6288C66.6406 18.8106 67.1792 19.2004 67.5993 19.8143C67.856 20.1896 68.054 20.7808 68.1598 21.4887C68.3417 22.7052 68.1014 24.1702 67.602 24.8891C66.9856 25.7765 66.3901 26.0889 65.3111 26.0909C64.726 26.092 64.6186 26.073 64.2374 25.9001C63.3185 25.4835 62.749 24.6716 62.511 23.4391C62.3619 22.6677 62.4618 21.1722 62.7075 20.4966C63.2248 19.0743 64.6239 18.2711 65.9612 18.6288ZM29.2538 19.0127C29.829 19.3069 30.0993 19.9099 29.9674 20.6052C29.8948 20.9878 29.8379 21.1048 29.6353 21.287C29.2696 21.616 29.1232 21.6437 27.5441 21.6817C26.7251 21.7015 25.9784 21.6984 25.8846 21.6749L25.7142 21.6321V20.2907C25.7142 19.5529 25.7336 18.9299 25.7572 18.9063C25.7808 18.8827 26.5131 18.8642 27.3845 18.8652C28.9011 18.8669 28.981 18.8732 29.2538 19.0127Z" fill="black"/>
</svg>
